HIERARCHY
ROOT Hips
{
	OFFSET 0.000000 88.474243 0.000000
	CHANNELS 6 Xposition Yposition Zposition Zrotation Yrotation Xrotation 
	JOINT Hips_Spine
	{
		OFFSET 0.000000 0.000000 0.000000
		CHANNELS 3 Zrotation Yrotation Xrotation
		JOINT Spine
		{
			OFFSET 0.005100 8.711998 -0.691000
			CHANNELS 3 Zrotation Yrotation Xrotation
			JOINT Spine1
			{
				OFFSET -0.009200 8.660301 -1.275000
				CHANNELS 3 Zrotation Yrotation Xrotation
				JOINT Spine2
				{
					OFFSET 0.006300 9.852501 -1.857000
					CHANNELS 3 Zrotation Yrotation Xrotation
					JOINT Spine2_Neck
					{
						OFFSET 0.000000 0.000000 0.000000
						CHANNELS 3 Zrotation Yrotation Xrotation
						JOINT Neck
						{
							OFFSET 0.016300 11.420799 -0.263300
							CHANNELS 3 Zrotation Yrotation Xrotation
							End Site #name: Head
							{
								OFFSET -0.019200 9.262405 2.362500
							}
						}
					}
					JOINT Spine2_LeftShoulder
					{
						OFFSET 0.000000 0.000000 0.000000
						CHANNELS 3 Zrotation Yrotation Xrotation
						JOINT LeftShoulder
						{
							OFFSET 5.616900 6.732201 -0.345700
							CHANNELS 3 Zrotation Yrotation Xrotation
							JOINT LeftArm
							{
								OFFSET 10.664888 -0.183372 -2.440700
								CHANNELS 3 Zrotation Yrotation Xrotation
								JOINT LeftForeArm
								{
									OFFSET 27.459126 0.000000 0.000000
									CHANNELS 3 Zrotation Yrotation Xrotation
									End Site #name: LeftHand
									{
										OFFSET 21.306858 0.000000 0.000000
									}
								}
							}
						}
					}
					JOINT Spine2_RightShoulder
					{
						OFFSET 0.000000 0.000000 0.000000
						CHANNELS 3 Zrotation Yrotation Xrotation
						JOINT RightShoulder
						{
							OFFSET -5.580300 6.737503 -0.344400
							CHANNELS 3 Zrotation Yrotation Xrotation
							JOINT RightArm
							{
								OFFSET -10.679335 -0.188484 -2.383900
								CHANNELS 3 Zrotation Yrotation Xrotation
								JOINT RightForeArm
								{
									OFFSET -27.503529 0.000000 0.000000
									CHANNELS 3 Zrotation Yrotation Xrotation
									End Site #name: RightHand
									{
										OFFSET -21.306808 0.000000 0.000000
									}
								}
							}
						}
					}
				}
			}
		}
	}
	JOINT Hips_LeftUpLeg
	{
		OFFSET 0.000000 0.000000 0.000000
		CHANNELS 3 Zrotation Yrotation Xrotation
		JOINT LeftUpLeg
		{
			OFFSET 6.857700 -6.739601 0.312100
			CHANNELS 3 Zrotation Yrotation Xrotation
			JOINT LeftLeg
			{
				OFFSET -0.367590 -34.731552 -4.572400
				CHANNELS 3 Zrotation Yrotation Xrotation
				End Site #name: LeftFoot
				{
					OFFSET 0.367590 -34.656704 -6.067400
				}
			}
		}
	}
	JOINT Hips_RightUpLeg
	{
		OFFSET 0.000000 0.000000 0.000000
		CHANNELS 3 Zrotation Yrotation Xrotation
		JOINT RightUpLeg
		{
			OFFSET -6.876100 -6.733299 0.301000
			CHANNELS 3 Zrotation Yrotation Xrotation
			JOINT RightLeg
			{
				OFFSET 0.347353 -34.795158 -4.515900
				CHANNELS 3 Zrotation Yrotation Xrotation
				End Site #name: RightFoot
				{
					OFFSET -0.347353 -34.589367 -6.070300
				}
			}
		}
	}
}
MOTION
Frames: 10
Frame Time: 0.041667
0.627497 0.704820 -0.888188 1.848426 -19.704573 -6.453176 -0.000000 0.000000 -0.000000 -2.995110 -0.671418 -3.373522 2.247547 -2.080711 -5.868472 0.000000 0.000000 0.000000 2.599053 -1.497664 -5.981557 2.760751 -5.876456 -2.339732 1.240092 -1.753898 -6.688206 -16.719866 -0.880817 9.855408 -56.314852 10.877948 -2.031587 -0.941303 -21.357907 8.787879 1.657675 -1.941317 -3.227224 3.955669 5.343308 1.356193 66.448122 -2.269018 -9.283264 0.350454 44.524286 -0.883613 -0.000000 -0.000000 -0.000000 -10.049555 26.961316 -0.531477 -2.362413 0.233241 18.778631 0.000000 0.000000 0.000000 -5.775043 8.064309 -22.716606 5.556184 -4.220861 16.234864 
0.390631 0.706877 -0.947644 1.542695 -21.277659 -6.306848 -0.000000 0.000000 -0.000000 -2.042027 -0.713874 -4.002898 2.448516 -2.099924 -5.812220 0.000000 0.000000 0.000000 2.769149 -1.450830 -5.953269 2.758746 -5.921918 -2.065811 1.451809 -1.713607 -6.591434 -16.107785 -1.062959 9.931705 -57.160834 11.762394 -2.773719 -0.972332 -21.942607 8.738780 1.852278 -1.912310 -3.242972 4.025061 5.461821 1.387295 66.277493 -2.241408 -8.822485 0.359006 44.928386 -0.880992 -0.000000 -0.000000 -0.000000 -9.399438 27.301953 0.076627 -2.494752 -0.086826 18.602830 0.000000 0.000000 0.000000 -4.972239 8.503704 -23.113438 5.706503 -4.653471 16.258462 
0.183233 0.706031 -1.008305 1.282627 -22.798470 -6.179701 -0.000000 0.000000 -0.000000 -1.030729 -0.694936 -4.611772 2.654530 -2.108032 -5.742323 0.000000 0.000000 0.000000 2.945929 -1.398949 -5.907649 2.762500 -5.991253 -1.759850 1.668050 -1.666971 -6.479629 -15.526374 -1.258944 9.987551 -57.956873 12.478952 -3.599743 -1.020499 -22.542997 8.708763 2.044731 -1.869460 -3.245490 4.113957 5.584433 1.420455 66.106679 -2.101382 -8.371974 0.370315 45.293938 -0.877132 -0.000000 -0.000000 -0.000000 -8.698144 27.659200 0.714071 -2.670482 -0.373055 18.443562 0.000000 0.000000 0.000000 -4.228252 8.928988 -23.457479 5.891466 -5.026680 16.261818 
0.012511 0.704132 -1.068791 1.089772 -24.409604 -6.080955 -0.000000 0.000000 -0.000000 -0.035653 -0.664429 -5.192369 2.841071 -2.105226 -5.660501 0.000000 0.000000 0.000000 3.113072 -1.342392 -5.848658 2.719654 -6.139639 -1.371394 1.868174 -1.618605 -6.352285 -14.968117 -1.443661 10.025496 -58.662321 12.998620 -4.482244 -1.073688 -23.140321 8.683694 2.222795 -1.821183 -3.238607 4.272150 5.715244 1.448968 65.919956 -1.987108 -7.989238 0.383250 45.669966 -0.874418 -0.000000 -0.000000 -0.000000 -7.944082 28.008528 1.410480 -2.911881 -0.572392 18.191555 0.000000 -0.000000 0.000000 -3.538278 9.383970 -23.763144 6.071694 -5.293195 16.320574 
-0.114168 0.703582 -1.127534 0.968788 -26.059978 -5.991288 -0.000000 -0.000000 -0.000000 0.668290 -0.671526 -5.791167 3.008255 -2.099586 -5.561677 0.000000 0.000000 0.000000 3.267467 -1.284826 -5.767971 2.644560 -6.269235 -0.913070 2.045885 -1.568804 -6.213785 -14.398268 -1.629803 10.026521 -59.352387 13.404020 -5.272147 -1.142940 -23.699898 8.664657 2.381129 -1.772986 -3.220586 4.462986 5.857430 1.480013 65.715063 -1.956752 -7.723465 0.398938 46.055256 -0.872239 -0.000000 -0.000000 -0.000000 -7.153938 28.335762 2.156006 -3.229655 -0.681505 17.836688 0.000000 -0.000000 0.000000 -2.924093 9.887213 -24.039684 6.242040 -5.515074 16.439837 
-0.187101 0.705296 -1.187968 0.931003 -27.852969 -5.911152 -0.000000 -0.000000 0.000000 1.273268 -0.703998 -6.306321 3.153016 -2.099159 -5.450400 0.000000 0.000000 0.000000 3.374703 -1.232663 -5.661484 2.540602 -6.367950 -0.399862 2.204846 -1.526311 -6.065530 -13.853779 -1.861152 9.981880 -59.978893 13.693373 -5.956948 -1.218806 -24.217354 8.650392 2.513794 -1.737956 -3.185245 4.701900 6.018100 1.516166 65.448056 -2.032847 -7.571081 0.419373 46.436211 -0.869132 -0.000000 -0.000000 -0.000000 -6.427364 28.657775 2.902158 -3.607886 -0.751310 17.486032 0.000000 -0.000000 0.000000 -2.403253 10.423690 -24.326847 6.409563 -5.672593 16.669457 
-0.200912 0.708846 -1.251880 0.983553 -29.986224 -5.868114 -0.000000 -0.000000 0.000000 1.775391 -0.750902 -6.673761 3.274239 -2.106379 -5.313720 0.000000 0.000000 0.000000 3.451550 -1.190683 -5.543621 2.449713 -6.317036 -0.014309 2.344462 -1.498563 -5.913996 -13.345906 -2.113246 9.887305 -60.564684 13.874537 -6.528292 -1.294511 -24.645199 8.650017 2.629301 -1.714424 -3.141705 5.050343 6.203549 1.565428 65.134383 -2.165707 -7.508320 0.445298 46.833996 -0.859752 -0.000000 -0.000000 -0.000000 -5.859119 28.876355 3.612586 -3.950028 -0.830752 17.159502 0.000000 -0.000000 0.000000 -1.976192 10.998979 -24.676752 6.550665 -5.759493 17.120525 
-0.159113 0.714566 -1.317926 1.139729 -32.453835 -5.918213 -0.000000 -0.000000 0.000000 2.189594 -0.844637 -6.824614 3.378032 -2.120619 -5.163318 0.000000 0.000000 0.000000 3.515313 -1.156942 -5.404855 2.396403 -6.126320 0.223346 2.467479 -1.481858 -5.759834 -12.899530 -2.354264 9.767271 -61.112287 13.985321 -6.953584 -1.375058 -24.972265 8.656241 2.728976 -1.701892 -3.089315 5.399495 6.390367 1.614536 64.796574 -2.299294 -7.466932 0.472147 47.228372 -0.848212 -0.000000 -0.000000 -0.000000 -5.514561 28.882879 4.217651 -4.292705 -0.995085 16.951793 0.000000 -0.000000 0.000000 -1.679189 11.599226 -25.132378 6.672596 -5.775590 17.793211 
-0.067640 0.722162 -1.385249 1.387319 -34.856939 -6.035975 -0.000000 -0.000000 0.000000 2.467944 -1.027840 -6.816442 3.469494 -2.140941 -5.013325 0.000000 0.000000 0.000000 3.566695 -1.131599 -5.249960 2.328479 -5.854034 0.451132 2.576895 -1.476763 -5.608759 -12.556295 -2.587686 9.627221 -61.556170 13.989644 -7.243025 -1.466655 -25.197065 8.660605 2.815667 -1.699134 -3.032056 5.714322 6.563650 1.659655 64.502551 -2.400080 -7.400783 0.501435 47.588827 -0.832266 -0.000000 -0.000000 -0.000000 -5.429768 28.563347 4.632246 -4.603604 -1.244776 16.998817 0.000000 -0.000000 0.000000 -1.499716 12.207478 -25.741887 6.805672 -5.724991 18.752498 
0.070845 0.732543 -1.452136 1.715362 -37.504465 -6.202645 -0.000000 -0.000000 0.000000 2.767404 -1.239337 -6.783295 3.547592 -2.160922 -4.862133 0.000000 0.000000 0.000000 3.606837 -1.113616 -5.088600 2.246538 -5.506164 0.688022 2.672277 -1.473885 -5.458129 -12.334918 -2.790434 9.497419 -61.866568 13.904461 -7.331639 -1.556197 -25.299498 8.650822 2.887349 -1.700320 -2.968509 5.965095 6.714393 1.700365 64.274029 -2.455943 -7.317563 0.530254 47.860496 -0.816919 -0.000000 -0.000000 -0.000000 -5.560095 27.947593 4.915132 -4.811380 -1.551178 17.288656 0.000000 -0.000000 0.000000 -1.395037 12.822970 -26.478591 6.922555 -5.629183 19.974595 
